<svg id="Layer_1" data-name="Layer 1" xmlns="http://www.w3.org/2000/svg" xmlns:xlink="http://www.w3.org/1999/xlink" viewBox="0 0 1000 1000"><defs><style>.cls-1{fill:#fff;}.cls-2{fill:url(#New_Gradient_Swatch_1);}</style><linearGradient id="New_Gradient_Swatch_1" x1="539.012" y1="512.006" x2="1509" y2="512.006" gradientUnits="userSpaceOnUse"><stop offset="0" stop-color="#5b86e5"/><stop offset="1" stop-color="#36d1dc"/></linearGradient></defs><title>AR23 - Circle</title><circle class="cls-1" cx="500" cy="500" r="500"/><path class="cls-2" d="M1024.006,997a480.906,480.906,0,0,1-219.893-53.077A490.748,490.748,0,0,1,636.613,803a2.477,2.477,0,0,1-.613-.828A486.673,486.673,0,0,1,581.368,709.5H926.5A2.5,2.5,0,0,0,929,707V609.5a2.5,2.5,0,0,0-2.5-2.5H548.525a489.85,489.85,0,0,1-9.512-92.5H1024a2.5,2.5,0,0,0,2.5-2.5V27.012a482.771,482.771,0,0,1,279.689,91.079A487.523,487.523,0,0,1,1479.83,346.95c-3.1.287-10.486.636-28.108.636-12.487,0-24.16-.178-24.278-.179h-.039a2.5,2.5,0,0,0-.374,4.972c20.088,3.051,52.525,8.359,58.2,10.234A485.388,485.388,0,0,1,1024,997Zm-256.8-195a2.5,2.5,0,0,0-1.65,4.378,390.177,390.177,0,0,0,516.905,0,2.5,2.5,0,0,0-1.651-4.378H1122.535l-92.5-92.5h330.972a2.5,2.5,0,0,0,2.161-1.243,391.332,391.332,0,0,0,40.433-98.128,2.5,2.5,0,0,0-2.42-3.129H1024a2.5,2.5,0,0,0-2.5,2.5V802ZM1121.5,132.319a2.5,2.5,0,0,0-2.5,2.5V512a2.5,2.5,0,0,0,2.5,2.5h292.253a2.5,2.5,0,0,0,2.5-2.508,394.844,394.844,0,0,0-12.658-98.121,2.5,2.5,0,0,0-2.42-1.871h-181.14l-92.5-92.5h233.482a2.5,2.5,0,0,0,2.161-3.756c-52.515-90.327-140.373-157.153-241.049-183.345A2.494,2.494,0,0,0,1121.5,132.319ZM929,509.5v-95a2.5,2.5,0,0,0-2.5-2.5H830.036l-92.5-92.5H926.5A2.5,2.5,0,0,0,929,317V134.819a2.5,2.5,0,0,0-3.129-2.42c-171.827,44.7-292.452,199.55-294.108,377.1H539.012A485.8,485.8,0,0,1,1021.5,27.012V509.5Z" transform="translate(-524 -12)"/><path class="cls-1" d="M1019,29.537V507H931.5V414.5a5,5,0,0,0-5-5H831.071l-87.5-87.5H926.5a5,5,0,0,0,5-5V134.819a5,5,0,0,0-6.259-4.839C753.128,174.756,632.062,329.368,629.294,507H541.537A483.3,483.3,0,0,1,1019,29.537m10,0a484.269,484.269,0,0,1,447.334,315.148c-4.08.207-11.42.4-24.611.4-12.466,0-24.123-.177-24.24-.179h-.078a5,5,0,0,0-.75,9.944c23.523,3.572,49.479,7.962,56.606,9.806A483.093,483.093,0,0,1,1506.462,507h-87.756a397.046,397.046,0,0,0-12.692-93.759,5,5,0,0,0-4.839-3.741h-180.1l-87.5-87.5h227.445a5,5,0,0,0,4.323-7.513c-52.847-90.9-141.264-158.149-242.58-184.507a5,5,0,0,0-6.259,4.839V507H1029V29.538M1506.463,517A483.3,483.3,0,0,1,1029,994.463V906.706a395.627,395.627,0,0,0,255.115-98.451,5,5,0,0,0-3.3-8.755H1123.571l-87.5-87.5h324.936a5,5,0,0,0,4.322-2.487,393.749,393.749,0,0,0,40.691-98.754,5,5,0,0,0-4.839-6.259H1029V517h477.463M1019,517V799.5H767.21a5,5,0,0,0-3.3,8.755A395.594,395.594,0,0,0,1019,906.706v87.756a483.807,483.807,0,0,1-380.39-192.97q-.144-.192-.305-.367a5.088,5.088,0,0,0-.3-.456A484.369,484.369,0,0,1,585.246,712H926.5a5,5,0,0,0,5-5V609.5a5,5,0,0,0-5-5H550.578a487.425,487.425,0,0,1-9.04-87.5H1019m5-492.5C755.049,25.16,537.16,243.049,536.5,512h97.747C634.8,330.706,758.741,178.462,926.5,134.819V317h-195L829,414.5h97.5V512H1024V24.5Zm0,0V512h97.5V134.819A391.751,391.751,0,0,1,1361.016,317H1121.5l97.5,97.5h182.175a391.61,391.61,0,0,1,12.578,97.5H1511.5a488.251,488.251,0,0,0-24.211-151.126c-.646-1.971-59.883-10.968-59.883-10.968s11.665.18,24.317.18c15.187,0,31.8-.259,31.391-1.4C1415.7,160.079,1235.661,25.019,1024,24.5ZM1511.5,512h0Zm0,0H1024v97.5h377.181a388.583,388.583,0,0,1-40.174,97.5H1024l97.5,97.5h159.313A389.46,389.46,0,0,1,1024,901.753V999.5c268.951-.66,486.84-218.549,487.5-487.5ZM1024,512H536.5a490.808,490.808,0,0,0,9.982,97.5H926.5V707H577.524A488.381,488.381,0,0,0,634,803.668v.832h.616C723.565,922.621,864.829,999.11,1024,999.5V901.753A389.414,389.414,0,0,1,767.21,804.5H1024V512Z" transform="translate(-524 -12)"/></svg>